HIERARCHY
ROOT Hips
{
	OFFSET 0.00000 0.00000 0.00000
	CHANNELS 6 Xposition Yposition Zposition Zrotation Yrotation Xrotation 
	JOINT LHipJoint
	{
		OFFSET 0 0 0
		CHANNELS 3 Zrotation Yrotation Xrotation
		JOINT LeftUpLeg
		{
			OFFSET 1.46561 -1.72757 0.83774
			CHANNELS 3 Zrotation Yrotation Xrotation
			JOINT LeftLeg
			{
				OFFSET 2.48915 -6.83890 0.00000
				CHANNELS 3 Zrotation Yrotation Xrotation
				JOINT LeftFoot
				{
					OFFSET 2.60555 -7.15868 0.00000
					CHANNELS 3 Zrotation Yrotation Xrotation
					JOINT LeftToeBase
					{
						OFFSET 0.19248 -0.52884 2.26738
						CHANNELS 3 Zrotation Yrotation Xrotation
						End Site
						{
							OFFSET 0.00000 -0.00000 1.17015
						}
					}
				}
			}
		}
	}
	JOINT RHipJoint
	{
		OFFSET 0 0 0
		CHANNELS 3 Zrotation Yrotation Xrotation
		JOINT RightUpLeg
		{
			OFFSET -1.46918 -1.72757 0.83774
			CHANNELS 3 Zrotation Yrotation Xrotation
			JOINT RightLeg
			{
				OFFSET -2.49034 -6.84216 0.00000
				CHANNELS 3 Zrotation Yrotation Xrotation
				JOINT RightFoot
				{
					OFFSET -2.65971 -7.30750 0.00000
					CHANNELS 3 Zrotation Yrotation Xrotation
					JOINT RightToeBase
					{
						OFFSET -0.19227 -0.52827 2.30785
						CHANNELS 3 Zrotation Yrotation Xrotation
						End Site
						{
							OFFSET -0.00000 -0.00000 1.18972
						}
					}
				}
			}
		}
	}
	JOINT LowerBack
	{
		OFFSET 0 0 0
		CHANNELS 3 Zrotation Yrotation Xrotation
		JOINT Spine
		{
			OFFSET 0.02432 2.19909 -0.28000
			CHANNELS 3 Zrotation Yrotation Xrotation
			JOINT Spine1
			{
				OFFSET 0.03714 2.21816 -0.15261
				CHANNELS 3 Zrotation Yrotation Xrotation
				JOINT Neck
				{
					OFFSET 0 0 0
					CHANNELS 3 Zrotation Yrotation Xrotation
					JOINT Neck1
					{
						OFFSET -0.01896 1.56165 0.21681
						CHANNELS 3 Zrotation Yrotation Xrotation
						JOINT Head
						{
							OFFSET 0.02744 1.56009 0.06764
							CHANNELS 3 Zrotation Yrotation Xrotation
							End Site
							{
								OFFSET 0.01212 1.60574 0.00298
							}
						}
					}
				}
				JOINT LeftShoulder
				{
					OFFSET 0 0 0
					CHANNELS 3 Zrotation Yrotation Xrotation
					JOINT LeftArm
					{
						OFFSET 3.05595 1.48048 -0.60794
						CHANNELS 3 Zrotation Yrotation Xrotation
						JOINT LeftForeArm
						{
							OFFSET 5.20607 -0.00000 -0.00000
							CHANNELS 3 Zrotation Yrotation Xrotation
							JOINT LeftHand
							{
								OFFSET 3.39961 -0.00000 0.00000
								CHANNELS 3 Zrotation Yrotation Xrotation
								JOINT LeftFingerBase
								{
									OFFSET 0 0 0
									CHANNELS 3 Zrotation Yrotation Xrotation
									JOINT LeftHandIndex1
									{
										OFFSET 0.51969 -0.00000 0.00000
										CHANNELS 3 Zrotation Yrotation Xrotation
										End Site
										{
											OFFSET 0.41899 -0.00000 0.00000
										}
									}
								}
								JOINT LThumb
								{
									OFFSET 0 0 0
									CHANNELS 3 Zrotation Yrotation Xrotation
									End Site
									{
										OFFSET 0.42539 -0.00000 0.42539
									}
								}
							}
						}
					}
				}
				JOINT RightShoulder
				{
					OFFSET 0 0 0
					CHANNELS 3 Zrotation Yrotation Xrotation
					JOINT RightArm
					{
						OFFSET -2.99052 1.57608 -0.69102
						CHANNELS 3 Zrotation Yrotation Xrotation
						JOINT RightForeArm
						{
							OFFSET -5.32214 -0.00000 0.00000
							CHANNELS 3 Zrotation Yrotation Xrotation
							JOINT RightHand
							{
								OFFSET -3.51208 -0.00000 0.00000
								CHANNELS 3 Zrotation Yrotation Xrotation
								JOINT RightFingerBase
								{
									OFFSET 0 0 0
									CHANNELS 3 Zrotation Yrotation Xrotation
									JOINT RightHandIndex1
									{
										OFFSET -0.58668 -0.00000 0.00000
										CHANNELS 3 Zrotation Yrotation Xrotation
										End Site
										{
											OFFSET -0.47300 -0.00000 0.00000
										}
									}
								}
								JOINT RThumb
								{
									OFFSET 0 0 0
									CHANNELS 3 Zrotation Yrotation Xrotation
									End Site
									{
										OFFSET -0.48022 -0.00000 0.48022
									}
								}
							}
						}
					}
				}
			}
		}
	}
}
MOTION
Frames: 7
Frame Time: .0083333
0.5599 17.5509 -14.1748 0 0 0 0 0 0 -21 0 0 0 0 0 0 0 0 0 0 0 0 0 0 21 0 0 0 0 0 0 0 0 0 0 0 0 0 0 0 0 0 0 0 0 0 0 -16 0 0 21 0 0 11 0 0 0 -8 0 0 0 0 0 0 0 0 0 0 0 0 0 0 0 0 0 0 0 0 8 0 0 0 0 0 0 0 0 0 0 0 0 0 0 0 0 0
0.5599 17.5509 -14.1748 -1.6012 -1.4539 6.2855 0.0000 0.0000 0.0000 -17.7210 2.8601 -14.4862 1.0739 6.5873 18.4983 0.3916 0.7777 -12.1283 0.0008 0.1774 0.4873 0.0000 0.0000 0.0000 18.4584 2.7541 -13.1264 -1.2211 -7.0089 19.7418 -0.5252 1.6028 -13.2307 -0.1256 -2.2850 6.2939 -0.0492 -0.2952 -1.6825 1.5189 -0.4500 3.1770 1.5702 -0.2530 4.2285 -2.7944 -0.2744 -13.9691 2.3790 -0.3645 28.0963 1.3052 -0.1690 11.4526 0.0000 -0.0000 0.0000 -87.1901 -10.2033 23.1468 8.9355 -15.0575 -1.1833 -0.0000 -0.0000 1.8157 23.5141 -2.2995 -1.0001 -7.1250 0.0000 -0.0000 -2.3635 27.4701 1.0075 0.0000 -0.0000 0.0000 87.2572 8.2198 9.3436 -11.7027 19.3572 -2.0026 0.0000 0.0000 35.5471 -19.2436 -24.7868 8.3263 7.1250 -0.0000 -0.0000 11.1158 -55.6976 -2.9443
0.5581 17.5510 -14.1728 -1.6108 -1.4607 6.3059 0.0000 0.0000 0.0000 -17.7033 2.8529 -14.5112 1.0762 6.5942 18.5186 0.3920 0.7878 -12.1387 0.0007 0.1760 0.4837 0.0000 0.0000 0.0000 18.4775 2.7683 -13.1250 -1.2169 -6.9974 19.7076 -0.5238 1.5803 -13.2176 -0.1225 -2.2567 6.2156 -0.0519 -0.2898 -1.7039 1.5266 -0.4429 3.1615 1.5799 -0.2496 4.2245 -2.8835 -0.3250 -13.8835 2.4667 -0.4394 27.9403 1.3404 -0.2010 11.3780 -0.0000 0.0000 0.0000 -87.2186 -10.1905 23.1686 8.9305 -15.0496 -1.1820 -0.0000 -0.0000 1.8300 23.5099 -2.4060 -1.0462 -7.1250 0.0000 -0.0000 -2.3656 27.3541 1.0149 -0.0000 0.0000 0.0000 87.2503 8.2264 9.2849 -11.6873 19.3340 -1.9975 0.0000 0.0000 35.6026 -19.1787 -24.8146 8.3051 7.1250 -0.0000 -0.0000 11.1962 -55.7125 -2.9700
0.5568 17.5513 -14.1699 -1.6384 -1.4428 6.3082 0.0000 0.0000 0.0000 -17.6652 2.8405 -14.4928 1.0753 6.5915 18.5105 0.3924 0.7894 -12.1445 0.0008 0.1839 0.5052 0.0000 0.0000 0.0000 18.5137 2.7485 -13.1142 -1.2158 -6.9943 19.6985 -0.5239 1.5830 -13.2187 -0.1245 -2.2750 6.2662 -0.0223 -0.2960 -1.7410 1.5305 -0.4531 3.1804 1.5666 -0.2540 4.2652 -2.8186 -0.3330 -13.9143 2.4570 -0.4633 27.8445 1.3213 -0.2056 11.3480 -0.0000 0.0000 0.0000 -87.2318 -10.2302 23.1717 8.9267 -15.0435 -1.1810 -0.0000 -0.0000 1.8835 23.5923 -2.3723 -1.0356 -7.1250 0.0000 -0.0000 -2.3026 27.3894 0.9859 -0.0000 0.0000 0.0000 87.2640 8.2694 9.2425 -11.6763 19.3174 -1.9939 0.0000 0.0000 35.6502 -19.2184 -24.7460 8.3021 7.1250 -0.0000 -0.0000 11.1230 -55.6514 -2.9337
0.5558 17.5514 -14.1672 -1.6193 -1.4489 6.3140 0.0000 0.0000 0.0000 -17.6862 2.8537 -14.4917 1.0747 6.5899 18.5060 0.3925 0.7941 -12.1493 0.0006 0.1613 0.4433 0.0000 0.0000 0.0000 18.4964 2.7235 -13.1135 -1.2143 -6.9903 19.6867 -0.5238 1.6129 -13.2104 -0.1233 -2.2638 6.2351 -0.0417 -0.2928 -1.7507 1.5256 -0.4477 3.1615 1.5728 -0.2517 4.2511 -2.8366 -0.3599 -13.8622 2.4992 -0.5098 27.7646 1.3325 -0.2232 11.3085 -0.0000 -0.0000 0.0000 -87.2525 -10.2108 23.1826 8.9089 -15.0152 -1.1764 -0.0000 -0.0000 1.8384 23.6095 -2.4408 -1.0664 -7.1250 0.0000 -0.0000 -2.2888 27.3144 0.9841 -0.0000 -0.0000 0.0000 87.2600 8.2695 9.1513 -11.6466 19.2726 -1.9841 0.0000 0.0000 35.7402 -19.1675 -24.7752 8.2877 7.1250 -0.0000 -0.0000 11.1893 -55.6706 -2.9567
0.5546 17.5515 -14.1645 -1.6212 -1.4469 6.3199 0.0000 0.0000 0.0000 -17.6810 2.8590 -14.4833 1.0734 6.5858 18.4940 0.3926 0.7966 -12.1507 0.0005 0.1504 0.4133 0.0000 0.0000 0.0000 18.5036 2.7074 -13.1103 -1.2134 -6.9876 19.6787 -0.5241 1.6260 -13.2109 -0.1228 -2.2591 6.2222 -0.0402 -0.2925 -1.7706 1.5259 -0.4474 3.1562 1.5722 -0.2516 4.2569 -2.8511 -0.3862 -13.8285 2.5405 -0.5553 27.6690 1.3427 -0.2400 11.2667 -0.0000 -0.0000 0.0000 -87.2712 -10.2070 23.1966 8.8965 -14.9952 -1.1732 -0.0000 -0.0000 1.8170 23.6519 -2.4838 -1.0873 -7.1250 0.0000 -0.0000 -2.2560 27.2667 0.9725 -0.0000 -0.0000 0.0000 87.2601 8.2865 9.0830 -11.6252 19.2402 -1.9770 0.0000 0.0000 35.8091 -19.1495 -24.7769 8.2800 7.1250 -0.0000 -0.0000 11.2088 -55.6686 -2.9614
0.5535 17.5517 -14.1617 -1.6208 -1.4428 6.3239 0.0000 0.0000 0.0000 -17.6788 2.8667 -14.4716 1.0717 6.5808 18.4792 0.3926 0.7954 -12.1512 0.0005 0.1388 0.3813 0.0000 0.0000 0.0000 18.5076 2.6893 -13.1074 -1.2131 -6.9867 19.6761 -0.5248 1.6409 -13.2167 -0.1225 -2.2566 6.2154 -0.0397 -0.2932 -1.7895 1.5255 -0.4484 3.1519 1.5714 -0.2520 4.2631 -2.8656 -0.4114 -13.8003 2.5809 -0.5988 27.5822 1.3529 -0.2561 11.2295 -0.0000 -0.0000 0.0000 -87.2887 -10.2025 23.2063 8.8817 -14.9716 -1.1694 -0.0000 -0.0000 1.7962 23.6913 -2.5232 -1.1067 -7.1250 0.0000 -0.0000 -2.2254 27.2229 0.9616 -0.0000 -0.0000 0.0000 87.2596 8.3056 9.0155 -11.6031 19.2068 -1.9698 0.0000 0.0000 35.8790 -19.1424 -24.7818 8.2782 7.1250 -0.0000 -0.0000 11.2184 -55.6721 -2.9649
